<svg preserveAspectRatio="none" width="100%" height="100%" overflow="visible" style="display: block;" viewBox="0 0 170.393 52" fill="none" xmlns="http://www.w3.org/2000/svg">
<g id="Logo">
<path id="Vector" d="M69.7572 14.5194H74.4306V39.9629H69.7572V37.9295C69.3072 39.2851 68.2341 39.9629 66.5378 39.9629H64.6685C61.5529 39.9629 59.9952 38.4335 59.9952 35.3748V14.5194H64.6685V34.6448C64.6685 35.2705 64.7724 35.6876 64.9801 35.8961C65.1878 36.0699 65.6032 36.1568 66.2263 36.1568H68.0437C68.6668 36.1568 69.0995 36.0178 69.3418 35.7397C69.6188 35.4617 69.7572 34.9924 69.7572 34.332V14.5194ZM87.4241 14.5194H89.2415C92.3917 14.5194 93.9668 16.0662 93.9668 19.1597V35.3748C93.9668 38.4335 92.3917 39.9629 89.2415 39.9629H87.4241C85.7279 39.9629 84.6547 39.2851 84.2047 37.9295V47.158H79.5314V14.5194H84.2047V16.5528C84.6547 15.1972 85.7279 14.5194 87.4241 14.5194ZM89.2935 34.6448V19.8375C89.2935 19.2119 89.1896 18.8121 88.9819 18.6383C88.7742 18.4298 88.3588 18.3255 87.7357 18.3255H85.9183C85.2952 18.3255 84.8451 18.4645 84.5682 18.7426C84.3259 19.0207 84.2047 19.4899 84.2047 20.1504V34.332C84.2047 34.9924 84.3259 35.4617 84.5682 35.7397C84.8451 36.0178 85.2952 36.1568 85.9183 36.1568H87.7357C88.3588 36.1568 88.7742 36.0699 88.9819 35.8961C89.1896 35.6876 89.2935 35.2705 89.2935 34.6448ZM101.358 14.5194L104.682 36.0004L108.057 14.5194H112.73L108.057 39.9629H101.358L96.685 14.5194H101.358ZM115.658 9.67054V5.03023H120.539V9.67054H115.658ZM120.435 39.9629H115.762V14.5194H120.435V39.9629ZM130.236 14.5194H135.325C138.579 14.5194 140.206 16.0662 140.206 19.1597V28.701H129.976V34.7491C129.976 35.34 130.08 35.7397 130.288 35.9483C130.496 36.1568 130.911 36.2611 131.534 36.2611H133.923C134.546 36.2611 134.961 36.1568 135.169 35.9483C135.377 35.7397 135.48 35.3226 135.48 34.697V32.6114H140.05V35.3748C140.05 38.4335 138.44 39.9629 135.221 39.9629H130.236C127.017 39.9629 125.407 38.4335 125.407 35.3748V19.1597C125.407 16.0662 127.017 14.5194 130.236 14.5194ZM129.976 25.2599H135.584V19.7332C135.584 19.1423 135.48 18.7426 135.273 18.5341C135.1 18.3255 134.702 18.2212 134.078 18.2212H131.534C130.911 18.2212 130.496 18.3255 130.288 18.5341C130.08 18.7426 129.976 19.1423 129.976 19.7332V25.2599ZM165.979 14.5194H170.393L165.719 39.9629H159.54L156.529 20.7239L153.517 39.9629H147.338L142.716 14.5194H147.13L150.505 35.9483L153.776 14.5194H159.333L162.5 35.9483L165.979 14.5194Z" fill="var(--fill-0, white)"/>
<path id="Vector_2" d="M20.6271 7.56321L45.3815 31.5239C45.9799 32.1032 46.9502 32.1032 47.5487 31.5239L52.1119 27.107C52.7103 26.5278 52.7103 25.5886 52.1119 25.0093L27.3575 1.04863C26.759 0.46936 25.7887 0.46936 25.1903 1.04863L20.6271 5.4655C20.0287 6.04477 20.0287 6.98394 20.6271 7.56321Z" fill="var(--fill-0, #F88344)"/>
<path id="Vector_3" d="M0.448841 27.1064C-0.149613 26.5271 -0.149614 25.5879 0.448841 25.0087L25.2032 1.04797C25.8017 0.468709 26.7719 0.468709 27.3704 1.04797L33.0172 6.51372L7.1792 31.5232C6.58077 32.1025 5.61049 32.1025 5.01204 31.5232L0.448841 27.1064Z" fill="var(--fill-0, #F95700)"/>
<path id="Vector_4" d="M20.6267 27.1867L35.2855 41.3755C35.8839 41.9547 36.8542 41.9547 37.4527 41.3755L42.0159 36.9586C42.6143 36.3793 42.6143 35.4402 42.0159 34.8609L27.3571 20.6721C26.7586 20.0928 25.7883 20.0928 25.1899 20.6721L20.6267 25.089C20.0283 25.6683 20.0283 26.6074 20.6267 27.1867Z" fill="var(--fill-0, #F88344)"/>
<path id="Vector_5" d="M10.5369 36.9583C9.93846 36.379 9.93846 35.4399 10.5369 34.8606L25.1957 20.6718C25.7941 20.0925 26.7644 20.0925 27.3629 20.6718L33.0096 26.1375L17.2672 41.3752C16.6688 41.9544 15.6986 41.9544 15.1001 41.3752L10.5369 36.9583Z" fill="var(--fill-0, #F95700)"/>
<path id="Vector_6" d="M20.5311 46.534L25.0943 50.9509C25.6927 51.5302 26.663 51.5302 27.2615 50.9509L31.8246 46.534C32.4231 45.9548 32.4231 45.0156 31.8246 44.4363L27.2615 40.0195C26.663 39.4402 25.6927 39.4402 25.0943 40.0195L20.5311 44.4363C19.9326 45.0156 19.9326 45.9548 20.5311 46.534Z" fill="var(--fill-0, #F95700)"/>
<path id="Vector_7" d="M20.6271 7.56321L45.3815 31.5239C45.9799 32.1032 46.9502 32.1032 47.5487 31.5239L52.1119 27.107C52.7103 26.5278 52.7103 25.5886 52.1119 25.0093L27.3575 1.04863C26.759 0.46936 25.7887 0.46936 25.1903 1.04863L20.6271 5.4655C20.0287 6.04477 20.0287 6.98394 20.6271 7.56321Z" fill="url(#paint0_linear_0_9)"/>
<path id="Vector_8" d="M0.448841 27.1064C-0.149613 26.5271 -0.149614 25.5879 0.448841 25.0087L25.2032 1.04797C25.8017 0.468709 26.7719 0.468709 27.3704 1.04797L33.0172 6.51372L7.1792 31.5232C6.58077 32.1025 5.61049 32.1025 5.01204 31.5232L0.448841 27.1064Z" fill="var(--fill-0, #F95700)"/>
<path id="Vector_9" d="M20.6267 27.1867L35.2855 41.3755C35.8839 41.9547 36.8542 41.9547 37.4527 41.3755L42.0159 36.9586C42.6143 36.3793 42.6143 35.4402 42.0159 34.8609L27.3571 20.6721C26.7586 20.0928 25.7883 20.0928 25.1899 20.6721L20.6267 25.089C20.0283 25.6683 20.0283 26.6074 20.6267 27.1867Z" fill="url(#paint1_linear_0_9)"/>
<path id="Vector_10" d="M10.5369 36.9583C9.93846 36.379 9.93846 35.4399 10.5369 34.8606L25.1957 20.6718C25.7941 20.0925 26.7644 20.0925 27.3629 20.6718L33.0096 26.1375L17.2672 41.3752C16.6688 41.9544 15.6986 41.9544 15.1001 41.3752L10.5369 36.9583Z" fill="var(--fill-0, #F95700)"/>
<path id="Vector_11" d="M20.5311 46.534L25.0943 50.9509C25.6927 51.5302 26.663 51.5302 27.2615 50.9509L31.8246 46.534C32.4231 45.9548 32.4231 45.0156 31.8246 44.4363L27.2615 40.0195C26.663 39.4402 25.6927 39.4402 25.0943 40.0195L20.5311 44.4363C19.9326 45.0156 19.9326 45.9548 20.5311 46.534Z" fill="var(--fill-0, #F95700)"/>
</g>
<defs>
<linearGradient id="paint0_linear_0_9" x1="40.1029" y1="20.5448" x2="23.1353" y2="3.77737" gradientUnits="userSpaceOnUse">
<stop stop-color="#F95700"/>
<stop offset="1" stop-color="#BA4100"/>
</linearGradient>
<linearGradient id="paint1_linear_0_9" x1="37.247" y1="36.9437" x2="23.4287" y2="22.8581" gradientUnits="userSpaceOnUse">
<stop stop-color="#F95700"/>
<stop offset="1" stop-color="#BA4100"/>
</linearGradient>
</defs>
</svg>
