<svg preserveAspectRatio="none" width="100%" height="100%" overflow="visible" style="display: block;" viewBox="0 0 104.857 32.0001" fill="none" xmlns="http://www.w3.org/2000/svg">
<g id="Logo">
<path id="Vector" d="M42.9279 8.93544H45.8038V24.5929H42.9279V23.3416C42.651 24.1758 41.9906 24.5929 40.9467 24.5929H39.7964C37.8791 24.5929 36.9205 23.6518 36.9205 21.7694V8.93544H39.7964V21.3202C39.7964 21.7053 39.8603 21.9619 39.9881 22.0903C40.1159 22.1972 40.3715 22.2507 40.755 22.2507H41.8734C42.2568 22.2507 42.5231 22.1652 42.6723 21.994C42.8427 21.8229 42.9279 21.5342 42.9279 21.1277V8.93544ZM53.7998 8.93544H54.9182C56.8567 8.93544 57.826 9.8873 57.826 11.791V21.7694C57.826 23.6518 56.8567 24.5929 54.9182 24.5929H53.7998C52.7559 24.5929 52.0955 24.1758 51.8186 23.3416V29.0206H48.9427V8.93544H51.8186V10.1868C52.0955 9.35255 52.7559 8.93544 53.7998 8.93544ZM54.9501 21.3202V12.2081C54.9501 11.8231 54.8862 11.5771 54.7584 11.4702C54.6306 11.3418 54.3749 11.2776 53.9915 11.2776H52.8731C52.4896 11.2776 52.2127 11.3632 52.0423 11.5343C51.8932 11.7054 51.8186 11.9942 51.8186 12.4006V21.1277C51.8186 21.5342 51.8932 21.8229 52.0423 21.994C52.2127 22.1652 52.4896 22.2507 52.8731 22.2507H53.9915C54.3749 22.2507 54.6306 22.1972 54.7584 22.0903C54.8862 21.9619 54.9501 21.7053 54.9501 21.3202ZM62.3746 8.93544L64.4197 22.1545L66.4967 8.93544H69.3726L66.4967 24.5929H62.3746L59.4987 8.93544H62.3746ZM71.1746 5.95154V3.09598H74.1783V5.95154H71.1746ZM74.1144 24.5929H71.2385V8.93544H74.1144V24.5929ZM80.1454 8.93544H83.2769C85.2794 8.93544 86.2806 9.8873 86.2806 11.791V17.6626H79.9856V21.3844C79.9856 21.748 80.0495 21.994 80.1773 22.1224C80.3051 22.2507 80.5608 22.3149 80.9442 22.3149H82.4141C82.7976 22.3149 83.0532 22.2507 83.181 22.1224C83.3089 21.994 83.3728 21.7374 83.3728 21.3523V20.0689H86.1847V21.7694C86.1847 23.6518 85.1942 24.5929 83.213 24.5929H80.1454C78.1642 24.5929 77.1736 23.6518 77.1736 21.7694V11.791C77.1736 9.8873 78.1642 8.93544 80.1454 8.93544ZM79.9856 15.545H83.4367V12.1439C83.4367 11.7803 83.3728 11.5343 83.2449 11.406C83.1384 11.2776 82.8934 11.2135 82.51 11.2135H80.9442C80.5608 11.2135 80.3051 11.2776 80.1773 11.406C80.0495 11.5343 79.9856 11.7803 79.9856 12.1439V15.545ZM102.141 8.93544H104.857L101.981 24.5929H98.1787L96.3254 12.7536L94.472 24.5929H90.6695L87.8255 8.93544H90.5416L92.6187 22.1224L94.6318 8.93544H98.0509L100 22.1224L102.141 8.93544Z" fill="var(--fill-0, white)"/>
<g id="Frame 1618873145">
<path id="Vector_2" d="M12.6935 4.65439L27.9269 19.3994C28.2952 19.7558 28.8923 19.7558 29.2606 19.3994L32.0687 16.6813C32.437 16.3248 32.437 15.7469 32.0687 15.3904L16.8353 0.645436C16.467 0.288966 15.8699 0.288966 15.5016 0.645435L12.6935 3.3635C12.3253 3.71997 12.3253 4.29792 12.6935 4.65439Z" fill="var(--fill-0, #F88344)"/>
<path id="Vector_3" d="M0.276208 16.6814C-0.092069 16.3249 -0.0920699 15.747 0.276208 15.3905L15.5096 0.645526C15.8779 0.289057 16.475 0.289057 16.8433 0.645526L20.3182 4.00905L4.41795 19.3994C4.04969 19.7559 3.45259 19.7559 3.08431 19.3994L0.276208 16.6814Z" fill="var(--fill-0, #F95700)"/>
<path id="Vector_4" d="M12.6938 16.7305L21.7145 25.462C22.0828 25.8185 22.6799 25.8185 23.0482 25.462L25.8563 22.744C26.2245 22.3875 26.2245 21.8096 25.8563 21.4531L16.8355 12.7216C16.4673 12.3651 15.8702 12.3651 15.5019 12.7216L12.6938 15.4396C12.3255 15.7961 12.3255 16.3741 12.6938 16.7305Z" fill="var(--fill-0, #F88344)"/>
<path id="Vector_5" d="M6.48518 22.7439C6.11692 22.3875 6.11692 21.8095 6.48518 21.453L15.5059 12.7215C15.8742 12.365 16.4713 12.365 16.8396 12.7215L20.3145 16.085L10.6269 25.462C10.2587 25.8185 9.66158 25.8185 9.29327 25.462L6.48518 22.7439Z" fill="var(--fill-0, #F95700)"/>
<path id="Vector_6" d="M12.6345 28.6366L15.4426 31.3546C15.8108 31.7111 16.4079 31.7111 16.7762 31.3546L19.5843 28.6366C19.9526 28.2801 19.9526 27.7021 19.5843 27.3457L16.7762 24.6276C16.4079 24.2711 15.8108 24.2711 15.4426 24.6276L12.6345 27.3457C12.2662 27.7021 12.2662 28.2801 12.6345 28.6366Z" fill="var(--fill-0, #F95700)"/>
<path id="Vector_7" d="M12.6935 4.65439L27.9269 19.3994C28.2952 19.7558 28.8923 19.7558 29.2606 19.3994L32.0687 16.6813C32.437 16.3248 32.437 15.7469 32.0687 15.3904L16.8353 0.645436C16.467 0.288967 15.8699 0.288966 15.5016 0.645435L12.6935 3.3635C12.3253 3.71997 12.3253 4.29792 12.6935 4.65439Z" fill="url(#paint0_linear_0_24)"/>
<path id="Vector_8" d="M0.276208 16.6814C-0.092069 16.3249 -0.0920699 15.747 0.276208 15.3905L15.5096 0.645526C15.8779 0.289057 16.475 0.289057 16.8433 0.645526L20.3182 4.00905L4.41795 19.3994C4.04969 19.7559 3.45259 19.7559 3.08431 19.3994L0.276208 16.6814Z" fill="var(--fill-0, #F95700)"/>
<path id="Vector_9" d="M12.6938 16.7305L21.7145 25.462C22.0828 25.8185 22.6799 25.8185 23.0482 25.462L25.8563 22.744C26.2245 22.3875 26.2245 21.8096 25.8563 21.4531L16.8355 12.7216C16.4673 12.3651 15.8702 12.3651 15.5019 12.7216L12.6938 15.4396C12.3255 15.7961 12.3255 16.3741 12.6938 16.7305Z" fill="url(#paint1_linear_0_24)"/>
<path id="Vector_10" d="M6.48518 22.7439C6.11692 22.3875 6.11692 21.8095 6.48518 21.453L15.5059 12.7215C15.8742 12.365 16.4713 12.365 16.8396 12.7215L20.3145 16.085L10.6269 25.462C10.2587 25.8185 9.66158 25.8185 9.29327 25.462L6.48518 22.7439Z" fill="var(--fill-0, #F95700)"/>
<path id="Vector_11" d="M12.6345 28.6366L15.4426 31.3546C15.8108 31.7111 16.4079 31.7111 16.7762 31.3546L19.5843 28.6366C19.9526 28.2801 19.9526 27.7021 19.5843 27.3457L16.7762 24.6276C16.4079 24.2711 15.8108 24.2711 15.4426 24.6276L12.6345 27.3457C12.2662 27.7021 12.2662 28.2801 12.6345 28.6366Z" fill="var(--fill-0, #F95700)"/>
</g>
</g>
<defs>
<linearGradient id="paint0_linear_0_24" x1="24.6786" y1="12.643" x2="14.237" y2="2.32466" gradientUnits="userSpaceOnUse">
<stop stop-color="#F95700"/>
<stop offset="1" stop-color="#BA4100"/>
</linearGradient>
<linearGradient id="paint1_linear_0_24" x1="22.9216" y1="22.7348" x2="14.4181" y2="14.0668" gradientUnits="userSpaceOnUse">
<stop stop-color="#F95700"/>
<stop offset="1" stop-color="#BA4100"/>
</linearGradient>
</defs>
</svg>
