<svg preserveAspectRatio="none" width="100%" height="100%" overflow="visible" style="display: block;" viewBox="0 0 33 32" fill="none" xmlns="http://www.w3.org/2000/svg">
<g id="Logo">
<g id="Frame 1618873145">
<path id="Vector_2" d="M12.6935 4.65439L27.9269 19.3994C28.2952 19.7558 28.8923 19.7558 29.2606 19.3994L32.0687 16.6813C32.437 16.3248 32.437 15.7469 32.0687 15.3904L16.8353 0.645436C16.467 0.288966 15.8699 0.288966 15.5016 0.645435L12.6935 3.3635C12.3253 3.71997 12.3253 4.29792 12.6935 4.65439Z" fill="var(--fill-0, #F88344)"/>
<path id="Vector_3" d="M0.276208 16.6814C-0.092069 16.3249 -0.0920699 15.747 0.276208 15.3905L15.5096 0.645526C15.8779 0.289057 16.475 0.289057 16.8433 0.645526L20.3182 4.00905L4.41795 19.3994C4.04969 19.7559 3.45259 19.7559 3.08431 19.3994L0.276208 16.6814Z" fill="var(--fill-0, #F95700)"/>
<path id="Vector_4" d="M12.6938 16.7305L21.7145 25.462C22.0828 25.8185 22.6799 25.8185 23.0482 25.462L25.8563 22.744C26.2245 22.3875 26.2245 21.8096 25.8563 21.4531L16.8355 12.7216C16.4673 12.3651 15.8702 12.3651 15.5019 12.7216L12.6938 15.4396C12.3255 15.7961 12.3255 16.3741 12.6938 16.7305Z" fill="var(--fill-0, #F88344)"/>
<path id="Vector_5" d="M6.48518 22.7439C6.11692 22.3875 6.11692 21.8095 6.48518 21.453L15.5059 12.7215C15.8742 12.365 16.4713 12.365 16.8396 12.7215L20.3145 16.085L10.6269 25.462C10.2587 25.8185 9.66158 25.8185 9.29327 25.462L6.48518 22.7439Z" fill="var(--fill-0, #F95700)"/>
<path id="Vector_6" d="M12.6345 28.6366L15.4426 31.3546C15.8108 31.7111 16.4079 31.7111 16.7762 31.3546L19.5843 28.6366C19.9526 28.2801 19.9526 27.7021 19.5843 27.3457L16.7762 24.6276C16.4079 24.2711 15.8108 24.2711 15.4426 24.6276L12.6345 27.3457C12.2662 27.7021 12.2662 28.2801 12.6345 28.6366Z" fill="var(--fill-0, #F95700)"/>
<path id="Vector_7" d="M12.6935 4.65439L27.9269 19.3994C28.2952 19.7558 28.8923 19.7558 29.2606 19.3994L32.0687 16.6813C32.437 16.3248 32.437 15.7469 32.0687 15.3904L16.8353 0.645436C16.467 0.288967 15.8699 0.288966 15.5016 0.645435L12.6935 3.3635C12.3253 3.71997 12.3253 4.29792 12.6935 4.65439Z" fill="url(#paint0_linear_0_24)"/>
<path id="Vector_8" d="M0.276208 16.6814C-0.092069 16.3249 -0.0920699 15.747 0.276208 15.3905L15.5096 0.645526C15.8779 0.289057 16.475 0.289057 16.8433 0.645526L20.3182 4.00905L4.41795 19.3994C4.04969 19.7559 3.45259 19.7559 3.08431 19.3994L0.276208 16.6814Z" fill="var(--fill-0, #F95700)"/>
<path id="Vector_9" d="M12.6938 16.7305L21.7145 25.462C22.0828 25.8185 22.6799 25.8185 23.0482 25.462L25.8563 22.744C26.2245 22.3875 26.2245 21.8096 25.8563 21.4531L16.8355 12.7216C16.4673 12.3651 15.8702 12.3651 15.5019 12.7216L12.6938 15.4396C12.3255 15.7961 12.3255 16.3741 12.6938 16.7305Z" fill="url(#paint1_linear_0_24)"/>
<path id="Vector_10" d="M6.48518 22.7439C6.11692 22.3875 6.11692 21.8095 6.48518 21.453L15.5059 12.7215C15.8742 12.365 16.4713 12.365 16.8396 12.7215L20.3145 16.085L10.6269 25.462C10.2587 25.8185 9.66158 25.8185 9.29327 25.462L6.48518 22.7439Z" fill="var(--fill-0, #F95700)"/>
<path id="Vector_11" d="M12.6345 28.6366L15.4426 31.3546C15.8108 31.7111 16.4079 31.7111 16.7762 31.3546L19.5843 28.6366C19.9526 28.2801 19.9526 27.7021 19.5843 27.3457L16.7762 24.6276C16.4079 24.2711 15.8108 24.2711 15.4426 24.6276L12.6345 27.3457C12.2662 27.7021 12.2662 28.2801 12.6345 28.6366Z" fill="var(--fill-0, #F95700)"/>
</g>
</g>
<defs>
<linearGradient id="paint0_linear_0_24" x1="24.6786" y1="12.643" x2="14.237" y2="2.32466" gradientUnits="userSpaceOnUse">
<stop stop-color="#F95700"/>
<stop offset="1" stop-color="#BA4100"/>
</linearGradient>
<linearGradient id="paint1_linear_0_24" x1="22.9216" y1="22.7348" x2="14.4181" y2="14.0668" gradientUnits="userSpaceOnUse">
<stop stop-color="#F95700"/>
<stop offset="1" stop-color="#BA4100"/>
</linearGradient>
</defs>
</svg>
